<?xml version="1.0" encoding="UTF-8" standalone="no"?>
<!DOCTYPE svg PUBLIC "-//W3C//DTD SVG 1.1//EN" "http://www.w3.org/Graphics/SVG/1.1/DTD/svg11.dtd">
<svg width="100%" height="100%" viewBox="0 0 763 108" version="1.1" xmlns="http://www.w3.org/2000/svg" xmlns:xlink="http://www.w3.org/1999/xlink" xml:space="preserve" xmlns:serif="http://www.serif.com/" style="fill-rule:evenodd;clip-rule:evenodd;stroke-linejoin:round;stroke-miterlimit:2;">
    <g transform="matrix(1,0,0,1,-120.509,-304.143)">
        <g transform="matrix(1,0,0,1,-243.609,85.5278)">
            <text x="351.303px" y="324.743px" style="font-family:'Aller';font-size:144px;fill:rgb(26,26,26);">DataWhat</text>
        </g>
        <g transform="matrix(1.03715,0,0,0.848574,14.3546,85.8623)">
            <path d="M751.037,331.305C751.037,329.742 750.53,328.243 749.625,327.138C748.721,326.033 747.495,325.412 746.217,325.412L731.754,325.412C730.475,325.412 729.249,326.033 728.345,327.138C727.441,328.243 726.933,329.742 726.933,331.305L726.933,378.443C726.933,380.005 727.441,381.504 728.345,382.609C729.249,383.714 730.475,384.335 731.754,384.335L746.217,384.335C747.495,384.335 748.721,383.714 749.625,382.609C750.53,381.504 751.037,380.005 751.037,378.443L751.037,331.305Z" style="fill:rgb(66,133,244);"/>
        </g>
        <g transform="matrix(1.03715,0,0,1.27286,59.4391,-77.2059)">
            <path d="M751.037,329.341C751.037,328.299 750.53,327.3 749.625,326.563C748.721,325.826 747.495,325.412 746.217,325.412C742.016,325.412 735.955,325.412 731.754,325.412C730.475,325.412 729.249,325.826 728.345,326.563C727.441,327.3 726.933,328.299 726.933,329.341C726.933,340.054 726.933,369.693 726.933,380.407C726.933,381.448 727.441,382.448 728.345,383.184C729.249,383.921 730.475,384.335 731.754,384.335C735.955,384.335 742.016,384.335 746.217,384.335C747.495,384.335 748.721,383.921 749.625,383.184C750.53,382.448 751.037,381.448 751.037,380.407C751.037,369.693 751.037,340.054 751.037,329.341Z" style="fill:rgb(66,133,244);"/>
        </g>
        <g transform="matrix(1.03715,0,0,1.83048,104.524,-291.517)">
            <path d="M751.037,328.144C751.037,326.635 748.879,325.412 746.217,325.412C742.016,325.412 735.955,325.412 731.754,325.412C729.091,325.412 726.933,326.635 726.933,328.144C726.933,338.01 726.933,371.737 726.933,381.603C726.933,383.112 729.091,384.335 731.754,384.335C735.955,384.335 742.016,384.335 746.217,384.335C748.879,384.335 751.037,383.112 751.037,381.603C751.037,371.737 751.037,338.01 751.037,328.144Z" style="fill:rgb(66,133,244);"/>
        </g>
    </g>
</svg>
